<!--?xml version="1.0" encoding="UTF-8"?-->
<svg xmlns="http://www.w3.org/2000/svg" xmlns:xlink="http://www.w3.org/1999/xlink" width="1920" height="1080" viewBox="0 0 1920 1080" preserveAspectRatio="xMidYMid slice" role="img" aria-label="Abstract tech network background">

  <defs>
    <!-- Background gradient -->
    <linearGradient id="bg" x1="0" y1="0" x2="1" y2="1">
      <stop offset="0%" stop-color="#0b2a4a"></stop>
      <stop offset="55%" stop-color="#153e70"></stop>
      <stop offset="100%" stop-color="#0a1f3a"></stop>
    </linearGradient>

    <!-- Soft color washes -->
    <radialGradient id="spot1" cx="15%" cy="10%" r="45%">
      <stop offset="0%" stop-color="#59c5ff" stop-opacity="0.35"></stop>
      <stop offset="100%" stop-color="#59c5ff" stop-opacity="0"></stop>
    </radialGradient>
    <radialGradient id="spot2" cx="80%" cy="25%" r="40%">
      <stop offset="0%" stop-color="#7aa3ff" stop-opacity="0.25"></stop>
      <stop offset="100%" stop-color="#7aa3ff" stop-opacity="0"></stop>
    </radialGradient>
    <radialGradient id="spot3" cx="30%" cy="80%" r="55%">
      <stop offset="0%" stop-color="#3bd9ff" stop-opacity="0.22"></stop>
      <stop offset="100%" stop-color="#3bd9ff" stop-opacity="0"></stop>
    </radialGradient>

    <!-- Glows & blur -->
    <filter id="glow" x="-50%" y="-50%" width="200%" height="200%">
      <feGaussianBlur stdDeviation="1.6" in="SourceGraphic" result="b"></feGaussianBlur>
      <feMerge>
        <feMergeNode in="b"></feMergeNode><feMergeNode in="SourceGraphic"></feMergeNode>
      </feMerge>
    </filter>
    <filter id="softBlur" x="-50%" y="-50%" width="200%" height="200%">
      <feGaussianBlur stdDeviation="4"></feGaussianBlur>
    </filter>

    <!-- Reusable shapes -->
    <symbol id="hex" viewBox="-12 -12 24 24">
      <polygon points="10.4,0 5.2,9 -5.2,9 -10.4,0 -5.2,-9 5.2,-9" fill="none" stroke="#bfe0ff" stroke-width="1" stroke-opacity="0.28" stroke-linejoin="round"></polygon>
    </symbol>
    <symbol id="tri" viewBox="-20 -20 40 40">
      <polygon points="-14,12 14,12 0,-16" fill="none" stroke="#d8ecff" stroke-width="1" stroke-linejoin="round"></polygon>
    </symbol>
  </defs>

  <!-- Background & washes -->
  <rect width="100%" height="100%" fill="url(#bg)"></rect>
  <rect width="100%" height="100%" fill="url(#spot1)"></rect>
  <rect width="100%" height="100%" fill="url(#spot2)"></rect>
  <rect width="100%" height="100%" fill="url(#spot3)"></rect>

  <!-- Bokeh glows -->
  <g opacity="0.25" filter="url(#softBlur)">
    <circle cx="240" cy="170" r="32" fill="#99c7ff"></circle>
    <circle cx="330" cy="300" r="26" fill="#99c7ff"></circle>
    <circle cx="1540" cy="210" r="34" fill="#99c7ff"></circle>
    <circle cx="1780" cy="320" r="28" fill="#99c7ff"></circle>
    <circle cx="420" cy="860" r="38" fill="#99c7ff"></circle>
    <circle cx="1120" cy="830" r="30" fill="#99c7ff"></circle>
    <circle cx="1320" cy="620" r="34" fill="#99c7ff"></circle>
    <circle cx="260" cy="560" r="28" fill="#99c7ff"></circle>
    <circle cx="1560" cy="900" r="36" fill="#99c7ff"></circle>
    <circle cx="860" cy="140" r="30" fill="#99c7ff"></circle>
    <circle cx="980" cy="980" r="32" fill="#99c7ff"></circle>
    <circle cx="720" cy="660" r="26" fill="#99c7ff"></circle>
  </g>

  <!-- Hex & triangle accents -->
  <g opacity="0.35">
    <use href="#hex" x="1480" y="150" transform="scale(1.2)"></use>
    <use href="#hex" x="1630" y="260" transform="scale(0.9)"></use>
    <use href="#hex" x="1720" y="180" transform="scale(0.75)"></use>
    <use href="#hex" x="1380" y="540" transform="scale(1.0)"></use>
    <use href="#hex" x="1540" y="610" transform="scale(0.9)"></use>
    <use href="#hex" x="1660" y="860" transform="scale(1.05)"></use>
    <use href="#hex" x="300" y="240" transform="scale(0.9)"></use>
    <use href="#hex" x="240" y="520" transform="scale(0.8)"></use>
    <use href="#hex" x="420" y="960" transform="scale(0.9)"></use>
    <use href="#hex" x="1120" y="500" transform="scale(0.85)"></use>
    <use href="#hex" x="920" y="900" transform="scale(0.8)"></use>
    <use href="#hex" x="760" y="320" transform="scale(0.8)"></use>
  </g>
  <g opacity="0.22">
    <use href="#tri" x="610" y="120" transform="rotate(-8 610 120) scale(0.9)"></use>
    <use href="#tri" x="910" y="380" transform="rotate(12 910 380) scale(0.8)"></use>
    <use href="#tri" x="1460" y="560" transform="rotate(-6 1460 560)"></use>
    <use href="#tri" x="1720" y="920" transform="rotate(14 1720 920) scale(0.9)"></use>
    <use href="#tri" x="260" y="900" transform="rotate(-10 260 900) scale(0.85)"></use>
    <use href="#tri" x="1540" y="230" transform="rotate(18 1540 230) scale(0.8)"></use>
    <use href="#tri" x="1180" y="620" transform="rotate(-16 1180 620) scale(0.8)"></use>
    <use href="#tri" x="380" y="300" transform="rotate(10 380 300) scale(0.9)"></use>
  </g>

  <!-- Network lines -->
  <g stroke="#cfe4ff" stroke-width="1.1" stroke-linecap="round" stroke-linejoin="round" fill="none">
    <!-- top-left cluster -->
    <line x1="60" y1="80" x2="140" y2="100" stroke-opacity="0.45"></line>
    <line x1="140" y1="100" x2="230" y2="90" stroke-opacity="0.32"></line>
    <line x1="140" y1="100" x2="120" y2="180" stroke-opacity="0.40"></line>
    <line x1="120" y1="180" x2="40" y2="250" stroke-opacity="0.38"></line>
    <line x1="230" y1="90" x2="300" y2="160" stroke-opacity="0.34"></line>
    <line x1="210" y1="190" x2="260" y2="240" stroke-opacity="0.41"></line>
    <line x1="180" y1="260" x2="120" y2="180" stroke-opacity="0.37"></line>
    <line x1="210" y1="190" x2="120" y2="180" stroke-opacity="0.28"></line>

    <!-- left-mid cluster -->
    <line x1="100" y1="420" x2="180" y2="460" stroke-opacity="0.44"></line>
    <line x1="180" y1="460" x2="240" y2="520" stroke-opacity="0.39"></line>
    <line x1="100" y1="420" x2="80" y2="540" stroke-opacity="0.30"></line>
    <line x1="150" y1="590" x2="220" y2="620" stroke-opacity="0.35"></line>
    <line x1="80" y1="540" x2="150" y2="590" stroke-opacity="0.36"></line>
    <line x1="220" y1="620" x2="240" y2="520" stroke-opacity="0.31"></line>

    <!-- center-left cluster -->
    <line x1="540" y1="120" x2="620" y2="140" stroke-opacity="0.47"></line>
    <line x1="620" y1="140" x2="700" y2="180" stroke-opacity="0.40"></line>
    <line x1="700" y1="180" x2="650" y2="230" stroke-opacity="0.36"></line>
    <line x1="650" y1="230" x2="560" y2="260" stroke-opacity="0.34"></line>
    <line x1="560" y1="260" x2="520" y2="340" stroke-opacity="0.33"></line>
    <line x1="700" y1="180" x2="690" y2="300" stroke-opacity="0.28"></line>

    <!-- center cluster -->
    <line x1="820" y1="220" x2="900" y2="260" stroke-opacity="0.46"></line>
    <line x1="900" y1="260" x2="980" y2="300" stroke-opacity="0.40"></line>
    <line x1="900" y1="260" x2="940" y2="360" stroke-opacity="0.32"></line>
    <line x1="940" y1="360" x2="860" y2="380" stroke-opacity="0.31"></line>
    <line x1="860" y1="380" x2="770" y2="320" stroke-opacity="0.34"></line>
    <line x1="770" y1="320" x2="820" y2="220" stroke-opacity="0.27"></line>

    <!-- top-right cluster -->
    <line x1="1500" y1="80" x2="1570" y2="120" stroke-opacity="0.44"></line>
    <line x1="1570" y1="120" x2="1650" y2="160" stroke-opacity="0.41"></line>
    <line x1="1650" y1="160" x2="1720" y2="100" stroke-opacity="0.28"></line>
    <line x1="1650" y1="160" x2="1670" y2="220" stroke-opacity="0.36"></line>
    <line x1="1670" y1="220" x2="1600" y2="240" stroke-opacity="0.33"></line>
    <line x1="1730" y1="180" x2="1810" y2="160" stroke-opacity="0.32"></line>
    <line x1="1600" y1="240" x2="1570" y2="120" stroke-opacity="0.24"></line>

    <!-- right-mid cluster -->
    <line x1="1380" y1="520" x2="1460" y2="560" stroke-opacity="0.45"></line>
    <line x1="1460" y1="560" x2="1540" y2="600" stroke-opacity="0.40"></line>
    <line x1="1540" y1="600" x2="1480" y2="640" stroke-opacity="0.34"></line>
    <line x1="1480" y1="640" x2="1390" y2="680" stroke-opacity="0.32"></line>
    <line x1="1390" y1="680" x2="1330" y2="590" stroke-opacity="0.32"></line>
    <line x1="1330" y1="590" x2="1380" y2="520" stroke-opacity="0.28"></line>

    <!-- bottom-right cluster -->
    <line x1="1680" y1="860" x2="1730" y2="900" stroke-opacity="0.44"></line>
    <line x1="1730" y1="900" x2="1800" y2="880" stroke-opacity="0.37"></line>
    <line x1="1800" y1="880" x2="1880" y2="820" stroke-opacity="0.30"></line>
    <line x1="1730" y1="900" x2="1740" y2="960" stroke-opacity="0.36"></line>
    <line x1="1740" y1="960" x2="1600" y2="930" stroke-opacity="0.30"></line>

    <!-- bottom-left cluster -->
    <line x1="200" y1="820" x2="260" y2="860" stroke-opacity="0.45"></line>
    <line x1="260" y1="860" x2="340" y2="920" stroke-opacity="0.40"></line>
    <line x1="260" y1="860" x2="140" y2="940" stroke-opacity="0.33"></line>
    <line x1="340" y1="920" x2="420" y2="980" stroke-opacity="0.36"></line>
    <line x1="340" y1="920" x2="300" y2="990" stroke-opacity="0.30"></line>

    <!-- bottom-center cluster -->
    <line x1="840" y1="900" x2="920" y2="940" stroke-opacity="0.45"></line>
    <line x1="920" y1="940" x2="1000" y2="980" stroke-opacity="0.40"></line>
    <line x1="1000" y1="980" x2="1080" y2="960" stroke-opacity="0.32"></line>
    <line x1="1080" y1="960" x2="1160" y2="1000" stroke-opacity="0.31"></line>
    <line x1="840" y1="900" x2="900" y2="1000" stroke-opacity="0.28"></line>

    <!-- center-right cluster -->
    <line x1="1120" y1="480" x2="1200" y2="520" stroke-opacity="0.45"></line>
    <line x1="1200" y1="520" x2="1280" y2="560" stroke-opacity="0.40"></line>
    <line x1="1280" y1="560" x2="1240" y2="620" stroke-opacity="0.34"></line>
    <line x1="1240" y1="620" x2="1180" y2="600" stroke-opacity="0.34"></line>
    <line x1="1180" y1="600" x2="1120" y2="480" stroke-opacity="0.26"></line>

    <!-- upper-mid cluster -->
    <line x1="980" y1="80" x2="1060" y2="120" stroke-opacity="0.47"></line>
    <line x1="1060" y1="120" x2="1140" y2="160" stroke-opacity="0.41"></line>
    <line x1="1140" y1="160" x2="1080" y2="200" stroke-opacity="0.30"></line>
    <line x1="1080" y1="200" x2="980" y2="220" stroke-opacity="0.32"></line>
    <line x1="980" y1="220" x2="900" y2="160" stroke-opacity="0.28"></line>

    <!-- bridges across clusters -->
    <line x1="690" y1="300" x2="770" y2="320" stroke-opacity="0.26"></line>
    <line x1="700" y1="180" x2="820" y2="220" stroke-opacity="0.22"></line>
    <line x1="940" y1="360" x2="1120" y2="480" stroke-opacity="0.20"></line>
    <line x1="1570" y1="120" x2="1380" y2="520" stroke-opacity="0.18"></line>
    <line x1="1540" y1="600" x2="1680" y2="860" stroke-opacity="0.20"></line>
    <line x1="420" y1="980" x2="840" y2="900" stroke-opacity="0.18"></line>
  </g>

  <!-- Nodes -->
  <g filter="url(#glow)" fill="#e8f2ff">
    <!-- top-left -->
    <circle cx="60" cy="80" r="2.3" fill-opacity="0.85"></circle>
    <circle cx="140" cy="100" r="2.2" fill-opacity="0.9"></circle>
    <circle cx="230" cy="90" r="2.0" fill-opacity="0.78"></circle>
    <circle cx="120" cy="180" r="2.1" fill-opacity="0.88"></circle>
    <circle cx="40" cy="250" r="1.8" fill-opacity="0.82"></circle>
    <circle cx="210" cy="190" r="2.0" fill-opacity="0.84"></circle>
    <circle cx="300" cy="160" r="1.9" fill-opacity="0.86"></circle>
    <circle cx="260" cy="240" r="2.1" fill-opacity="0.86"></circle>
    <circle cx="180" cy="260" r="1.9" fill-opacity="0.83"></circle>
    <!-- left-mid -->
    <circle cx="100" cy="420" r="2.0" fill-opacity="0.86"></circle>
    <circle cx="180" cy="460" r="2.1" fill-opacity="0.86"></circle>
    <circle cx="240" cy="520" r="1.9" fill-opacity="0.83"></circle>
    <circle cx="80" cy="540" r="1.8" fill-opacity="0.80"></circle>
    <circle cx="150" cy="590" r="2.0" fill-opacity="0.86"></circle>
    <circle cx="220" cy="620" r="2.0" fill-opacity="0.86"></circle>
    <circle cx="40" cy="610" r="1.7" fill-opacity="0.80"></circle>
    <!-- center-left -->
    <circle cx="540" cy="120" r="2.0" fill-opacity="0.84"></circle>
    <circle cx="620" cy="140" r="2.1" fill-opacity="0.86"></circle>
    <circle cx="700" cy="180" r="2.0" fill-opacity="0.86"></circle>
    <circle cx="650" cy="230" r="2.0" fill-opacity="0.84"></circle>
    <circle cx="560" cy="260" r="1.9" fill-opacity="0.82"></circle>
    <circle cx="690" cy="300" r="2.0" fill-opacity="0.86"></circle>
    <circle cx="520" cy="340" r="1.8" fill-opacity="0.80"></circle>
    <!-- center -->
    <circle cx="820" cy="220" r="2.0" fill-opacity="0.86"></circle>
    <circle cx="900" cy="260" r="2.1" fill-opacity="0.90"></circle>
    <circle cx="980" cy="300" r="2.0" fill-opacity="0.86"></circle>
    <circle cx="940" cy="360" r="2.0" fill-opacity="0.86"></circle>
    <circle cx="860" cy="380" r="2.0" fill-opacity="0.84"></circle>
    <circle cx="770" cy="320" r="2.0" fill-opacity="0.84"></circle>
    <!-- top-right -->
    <circle cx="1500" cy="80" r="2.0" fill-opacity="0.84"></circle>
    <circle cx="1570" cy="120" r="2.1" fill-opacity="0.86"></circle>
    <circle cx="1650" cy="160" r="2.0" fill-opacity="0.86"></circle>
    <circle cx="1720" cy="100" r="1.9" fill-opacity="0.82"></circle>
    <circle cx="1670" cy="220" r="2.0" fill-opacity="0.86"></circle>
    <circle cx="1600" cy="240" r="1.9" fill-opacity="0.84"></circle>
    <circle cx="1730" cy="180" r="1.9" fill-opacity="0.84"></circle>
    <circle cx="1810" cy="160" r="1.8" fill-opacity="0.80"></circle>
    <!-- right-mid -->
    <circle cx="1380" cy="520" r="2.0" fill-opacity="0.86"></circle>
    <circle cx="1460" cy="560" r="2.0" fill-opacity="0.86"></circle>
    <circle cx="1540" cy="600" r="2.0" fill-opacity="0.86"></circle>
    <circle cx="1480" cy="640" r="2.0" fill-opacity="0.86"></circle>
    <circle cx="1390" cy="680" r="1.9" fill-opacity="0.84"></circle>
    <circle cx="1330" cy="590" r="1.9" fill-opacity="0.84"></circle>
    <!-- bottom-right -->
    <circle cx="1680" cy="860" r="2.0" fill-opacity="0.86"></circle>
    <circle cx="1730" cy="900" r="2.0" fill-opacity="0.86"></circle>
    <circle cx="1800" cy="880" r="1.9" fill-opacity="0.84"></circle>
    <circle cx="1880" cy="820" r="1.8" fill-opacity="0.80"></circle>
    <circle cx="1740" cy="960" r="1.9" fill-opacity="0.84"></circle>
    <circle cx="1600" cy="930" r="1.9" fill-opacity="0.84"></circle>
    <!-- bottom-left -->
    <circle cx="200" cy="820" r="2.0" fill-opacity="0.86"></circle>
    <circle cx="260" cy="860" r="2.0" fill-opacity="0.86"></circle>
    <circle cx="340" cy="920" r="2.0" fill-opacity="0.86"></circle>
    <circle cx="140" cy="940" r="1.9" fill-opacity="0.84"></circle>
    <circle cx="300" cy="990" r="1.9" fill-opacity="0.84"></circle>
    <circle cx="420" cy="980" r="2.0" fill-opacity="0.86"></circle>
    <!-- bottom-center -->
    <circle cx="840" cy="900" r="2.0" fill-opacity="0.86"></circle>
    <circle cx="920" cy="940" r="2.0" fill-opacity="0.86"></circle>
    <circle cx="1000" cy="980" r="2.0" fill-opacity="0.86"></circle>
    <circle cx="1080" cy="960" r="1.9" fill-opacity="0.84"></circle>
    <circle cx="1160" cy="1000" r="1.9" fill-opacity="0.84"></circle>
    <circle cx="900" cy="1000" r="1.9" fill-opacity="0.84"></circle>
    <!-- center-right -->
    <circle cx="1120" cy="480" r="2.0" fill-opacity="0.86"></circle>
    <circle cx="1200" cy="520" r="2.0" fill-opacity="0.86"></circle>
    <circle cx="1280" cy="560" r="2.0" fill-opacity="0.86"></circle>
    <circle cx="1240" cy="620" r="1.9" fill-opacity="0.84"></circle>
    <circle cx="1180" cy="600" r="1.9" fill-opacity="0.84"></circle>
    <!-- upper-mid -->
    <circle cx="980" cy="80" r="2.0" fill-opacity="0.86"></circle>
    <circle cx="1060" cy="120" r="2.0" fill-opacity="0.86"></circle>
    <circle cx="1140" cy="160" r="2.0" fill-opacity="0.86"></circle>
    <circle cx="1080" cy="200" r="1.9" fill-opacity="0.84"></circle>
    <circle cx="980" cy="220" r="1.9" fill-opacity="0.84"></circle>
    <circle cx="900" cy="160" r="1.9" fill-opacity="0.84"></circle>
  </g>

  <!-- tiny foreground dots -->
  <g fill="#ffffff" opacity="0.45">
    <circle cx="610" cy="80" r="1.1"></circle><circle cx="680" cy="140" r="1.2"></circle>
    <circle cx="740" cy="210" r="1.0"></circle><circle cx="1240" cy="300" r="1.1"></circle>
    <circle cx="1320" cy="360" r="1.0"></circle><circle cx="330" cy="660" r="1.1"></circle>
    <circle cx="470" cy="720" r="1.0"></circle><circle cx="560" cy="840" r="1.1"></circle>
    <circle cx="760" cy="760" r="1.0"></circle><circle cx="980" cy="720" r="1.2"></circle>
    <circle cx="1100" cy="860" r="1.0"></circle><circle cx="1400" cy="760" r="1.1"></circle>
    <circle cx="1520" cy="720" r="1.0"></circle><circle cx="1740" cy="740" r="1.1"></circle>
    <circle cx="1800" cy="460" r="1.0"></circle><circle cx="1660" cy="500" r="1.2"></circle>
    <circle cx="1560" cy="340" r="1.0"></circle><circle cx="300" cy="340" r="1.1"></circle>
    <circle cx="220" cy="160" r="1.0"></circle><circle cx="420" cy="200" r="1.0"></circle>
    <circle cx="540" cy="380" r="1.1"></circle><circle cx="860" cy="520" r="1.0"></circle>
    <circle cx="1040" cy="440" r="1.1"></circle><circle cx="1160" cy="560" r="1.0"></circle>
    <circle cx="1280" cy="660" r="1.0"></circle><circle cx="1440" cy="840" r="1.1"></circle>
    <circle cx="340" cy="1040" r="1.1"></circle><circle cx="640" cy="1020" r="1.0"></circle>
    <circle cx="760" cy="980" r="1.2"></circle><circle cx="120" cy="720" r="1.0"></circle>
    <circle cx="220" cy="700" r="1.1"></circle><circle cx="420" cy="560" r="1.0"></circle>
    <circle cx="480" cy="480" r="1.1"></circle><circle cx="600" cy="560" r="1.0"></circle>
    <circle cx="720" cy="600" r="1.0"></circle><circle cx="820" cy="680" r="1.1"></circle>
    <circle cx="920" cy="640" r="1.0"></circle><circle cx="1040" cy="600" r="1.0"></circle>
  </g>
</svg>
